<svg xmlns="http://www.w3.org/2000/svg" version="1.1" xmlns:xlink="http://www.w3.org/1999/xlink" xmlns:svgjs="http://svgjs.com/svgjs" width="49.000099" height="49"><svg width="49.000099" height="49" viewBox="0 0 49.000099 49" fill="none" version="1.1" id="SvgjsSvg1086" sodipodi:docname="logo.svg" inkscape:version="1.3.1 (91b66b0783, 2023-11-16)" xmlns:inkscape="http://www.inkscape.org/namespaces/inkscape" xmlns:sodipodi="http://sodipodi.sourceforge.net/DTD/sodipodi-0.dtd" xmlns="http://www.w3.org/2000/svg" xmlns:svg="http://www.w3.org/2000/svg">
  <sodipodi:namedview id="SvgjsSodipodi:namedview1085" pagecolor="#ffffff" bordercolor="#000000" borderopacity="0.25" inkscape:showpageshadow="2" inkscape:pageopacity="0.0" inkscape:pagecheckerboard="0" inkscape:deskcolor="#d1d1d1" showgrid="false" inkscape:zoom="2.8689655" inkscape:cx="25.444712" inkscape:cy="24.573317" inkscape:window-width="1920" inkscape:window-height="1009" inkscape:window-x="-8" inkscape:window-y="-8" inkscape:window-maximized="1" inkscape:current-layer="svg63"></sodipodi:namedview>
  <g filter="url(#filter0_f)" id="SvgjsG1084" transform="translate(-119.5,-0.5)">
    <path d="m 159.513,37.6331 c 0.5,-0.6135 0.049,-1.4933 -0.743,-1.5063 -10.106,-0.1664 -18.558,0.0204 -29.012,0.6564 -0.791,0.0482 -1.203,0.9479 -0.675,1.5385 3.663,4.0984 8.991,6.6783 14.921,6.6783 6.256,0 11.841,-2.8709 15.509,-7.3669 z" stroke="#4c4cff" stroke-linecap="round" stroke-linejoin="round" id="SvgjsPath1083"></path>
    <path d="m 126.643,15.0579 c -0.391,0.6799 0.184,1.4715 0.963,1.3781 11.567,-1.388 20.092,-1.8019 32.182,-1.0657 0.787,0.0479 1.316,-0.783 0.88,-1.439 C 157.083,8.54757 150.958,5 144.004,5 136.576,5 130.093,9.04797 126.643,15.0579 Z" stroke="#4c4cff" stroke-linecap="round" stroke-linejoin="round" id="SvgjsPath1082"></path>
  </g>
  <g filter="url(#filter1_f)" id="SvgjsG1081" transform="translate(-119.5,-0.5)">
    <path d="m 159.513,37.6331 c 0.5,-0.6135 0.049,-1.4933 -0.743,-1.5063 -10.106,-0.1664 -18.558,0.0204 -29.012,0.6564 -0.791,0.0482 -1.203,0.9479 -0.675,1.5385 3.663,4.0984 8.991,6.6783 14.921,6.6783 6.256,0 11.841,-2.8709 15.509,-7.3669 z" stroke="#4c4cff" stroke-linecap="round" stroke-linejoin="round" id="SvgjsPath1080"></path>
    <path d="m 126.643,15.0579 c -0.391,0.6799 0.184,1.4715 0.963,1.3781 11.567,-1.388 20.092,-1.8019 32.182,-1.0657 0.787,0.0479 1.316,-0.783 0.88,-1.439 C 157.083,8.54757 150.958,5 144.004,5 136.576,5 130.093,9.04797 126.643,15.0579 Z" stroke="#4c4cff" stroke-linecap="round" stroke-linejoin="round" id="SvgjsPath1079"></path>
  </g>
  <path d="m 40.013,37.1331 c 0.5,-0.6135 0.049,-1.4933 -0.743,-1.5063 -10.106,-0.1664 -18.558,0.0204 -29.012,0.6564 -0.791,0.0482 -1.203,0.9479 -0.675,1.5385 3.663,4.0984 8.991,6.6783 14.921,6.6783 6.256,0 11.841,-2.8709 15.509,-7.3669 z" stroke="#4c4cff" stroke-linecap="round" stroke-linejoin="round" id="SvgjsPath1078"></path>
  <path d="m 7.143,14.5579 c -0.391,0.6799 0.184,1.4715 0.963,1.3781 11.567,-1.388 20.092,-1.8019 32.182,-1.0657 0.787,0.0479 1.316,-0.783 0.88,-1.439 C 37.583,8.04757 31.458,4.5 24.504,4.5 17.076,4.5 10.593,8.54797 7.143,14.5579 Z" stroke="#4c4cff" stroke-linecap="round" stroke-linejoin="round" id="SvgjsPath1077"></path>
  <path d="m 40.013,37.1331 c 0.5,-0.6135 0.049,-1.4933 -0.743,-1.5063 -10.106,-0.1664 -18.558,0.0204 -29.012,0.6564 -0.791,0.0482 -1.203,0.9479 -0.675,1.5385 3.663,4.0984 8.991,6.6783 14.921,6.6783 6.256,0 11.841,-2.8709 15.509,-7.3669 z" stroke="#ffffff" stroke-width="0.5" stroke-linecap="round" stroke-linejoin="round" id="SvgjsPath1076"></path>
  <path d="m 7.143,14.5579 c -0.391,0.6799 0.184,1.4715 0.963,1.3781 11.567,-1.388 20.092,-1.8019 32.182,-1.0657 0.787,0.0479 1.316,-0.783 0.88,-1.439 C 37.583,8.04757 31.458,4.5 24.504,4.5 17.076,4.5 10.593,8.54797 7.143,14.5579 Z" stroke="#ffffff" stroke-width="0.5" stroke-linecap="round" stroke-linejoin="round" id="SvgjsPath1075"></path>
  <g filter="url(#filter2_f)" id="SvgjsG1074" transform="translate(-119.5,-0.5)">
    <path d="m 163.859,27.4656 c 0.129,-1.0523 -0.687,-1.9541 -1.744,-2.0392 -12.88,-1.0381 -22.931,-1.2013 -36.225,-0.5019 -1.059,0.0557 -1.9,0.9351 -1.801,1.9911 0.141,1.4989 0.448,2.9498 0.902,4.334 0.262,0.7977 1.041,1.2912 1.88,1.2622 12.512,-0.4335 22.189,-0.465 34.325,-0.1371 0.839,0.0226 1.615,-0.4771 1.87,-1.2772 0.373,-1.1677 0.641,-2.382 0.793,-3.6319 z" stroke="#e33cd5" stroke-linecap="round" stroke-linejoin="round" id="SvgjsPath1073"></path>
  </g>
  <g filter="url(#filter3_f)" id="SvgjsG1072" transform="translate(-119.5,-0.5)">
    <path d="m 163.859,27.4656 c 0.129,-1.0523 -0.687,-1.9541 -1.744,-2.0392 -12.88,-1.0381 -22.931,-1.2013 -36.225,-0.5019 -1.059,0.0557 -1.9,0.9351 -1.801,1.9911 0.141,1.4989 0.448,2.9498 0.902,4.334 0.262,0.7977 1.041,1.2912 1.88,1.2622 12.512,-0.4335 22.189,-0.465 34.325,-0.1371 0.839,0.0226 1.615,-0.4771 1.87,-1.2772 0.373,-1.1677 0.641,-2.382 0.793,-3.6319 z" stroke="#e33cd5" stroke-linecap="round" stroke-linejoin="round" id="SvgjsPath1071"></path>
  </g>
  <path d="M 44.359,26.9656 C 44.488,25.9133 43.672,25.0115 42.615,24.9264 29.735,23.8883 19.684,23.7251 6.39,24.4245 c -1.059,0.0557 -1.9,0.9351 -1.801,1.9911 0.141,1.4989 0.448,2.9498 0.902,4.334 0.262,0.7977 1.041,1.2912 1.88,1.2622 12.512,-0.4335 22.189,-0.465 34.325,-0.1371 0.839,0.0226 1.615,-0.4771 1.87,-1.2772 0.373,-1.1677 0.641,-2.382 0.793,-3.6319 z" stroke="#e33cd5" stroke-linecap="round" stroke-linejoin="round" id="SvgjsPath1070"></path>
  <path d="M 44.359,26.9656 C 44.488,25.9133 43.672,25.0115 42.615,24.9264 29.735,23.8883 19.684,23.7251 6.39,24.4245 c -1.059,0.0557 -1.9,0.9351 -1.801,1.9911 0.141,1.4989 0.448,2.9498 0.902,4.334 0.262,0.7977 1.041,1.2912 1.88,1.2622 12.512,-0.4335 22.189,-0.465 34.325,-0.1371 0.839,0.0226 1.615,-0.4771 1.87,-1.2772 0.373,-1.1677 0.641,-2.382 0.793,-3.6319 z" stroke="#ffffff" stroke-width="0.5" stroke-linecap="round" stroke-linejoin="round" id="SvgjsPath1069"></path>
  <g filter="url(#filter4_f)" id="SvgjsG1068" transform="translate(-119.5,-0.5)">
    <path d="m 124,20.5 c 2.667,-2 5.333,-2 8,0 2.667,2 5.333,2 8,0 2.667,-2 5.333,-2 8,0 2.667,2 5.333,2 8,0 2.667,-2 5.333,-2 8,0" stroke="#00cccc" stroke-linecap="round" stroke-linejoin="round" id="SvgjsPath1067"></path>
  </g>
  <g filter="url(#filter5_f)" id="SvgjsG1066" transform="translate(-119.5,-0.5)">
    <path d="m 124,20.5 c 2.667,-2 5.333,-2 8,0 2.667,2 5.333,2 8,0 2.667,-2 5.333,-2 8,0 2.667,2 5.333,2 8,0 2.667,-2 5.333,-2 8,0" stroke="#00cccc" stroke-linecap="round" stroke-linejoin="round" id="SvgjsPath1065"></path>
  </g>
  <path d="m 4.5,20 c 2.667,-2 5.333,-2 8,0 2.667,2 5.333,2 8,0 2.667,-2 5.333,-2 8,0 2.667,2 5.333,2 8,0 2.667,-2 5.333,-2 8,0" stroke="#00cccc" stroke-linecap="round" stroke-linejoin="round" id="SvgjsPath1064"></path>
  <path d="m 4.5,20 c 2.667,-2 5.333,-2 8,0 2.667,2 5.333,2 8,0 2.667,-2 5.333,-2 8,0 2.667,2 5.333,2 8,0 2.667,-2 5.333,-2 8,0" stroke="#ffffff" stroke-width="0.5" stroke-linecap="round" stroke-linejoin="round" id="SvgjsPath1063"></path>
  <g filter="url(#filter6_f)" id="SvgjsG1062" transform="translate(-119.5,-0.5)">
    <ellipse rx="1" ry="0.75" transform="matrix(0.885492,0.464655,0.464655,-0.885492,137.234,39.9812)" stroke="#4c4cff" id="SvgjsEllipse1061" cx="0" cy="0"></ellipse>
    <ellipse cx="152.70799" cy="11.3542" rx="1.5" ry="1" transform="rotate(15,152.708,11.3542)" stroke="#4c4cff" id="SvgjsEllipse1060"></ellipse>
    <ellipse rx="1" ry="0.75" transform="matrix(0.965926,-0.258819,-0.258819,-0.965926,150.16,39.9833)" stroke="#4c4cff" id="SvgjsEllipse1059" cx="0" cy="0"></ellipse>
    <ellipse cx="142.5" cy="12" rx="1.5" ry="1" transform="rotate(180,142.5,12)" stroke="#4c4cff" id="SvgjsEllipse1058"></ellipse>
    <ellipse cx="146.70799" cy="8.3541498" rx="1.5" ry="1" transform="rotate(15,146.708,8.35415)" stroke="#4c4cff" id="SvgjsEllipse1057"></ellipse>
    <ellipse rx="1" ry="0.75" transform="matrix(1,0,0,-1,144,41.75)" stroke="#4c4cff" id="SvgjsEllipse1056" cx="0" cy="0"></ellipse>
    <ellipse cx="135.793" cy="10.5826" rx="1.5" ry="1" transform="rotate(-27.6879,135.793,10.5826)" stroke="#4c4cff" id="SvgjsEllipse1055"></ellipse>
  </g>
  <g filter="url(#filter7_f)" id="SvgjsG1054" transform="translate(-119.5,-0.5)">
    <ellipse rx="1" ry="0.75" transform="matrix(0.885492,0.464655,0.464655,-0.885492,137.234,39.9812)" stroke="#4c4cff" id="SvgjsEllipse1053" cx="0" cy="0"></ellipse>
    <ellipse cx="152.70799" cy="11.3542" rx="1.5" ry="1" transform="rotate(15,152.708,11.3542)" stroke="#4c4cff" id="SvgjsEllipse1052"></ellipse>
    <ellipse rx="1" ry="0.75" transform="matrix(0.965926,-0.258819,-0.258819,-0.965926,150.16,39.9833)" stroke="#4c4cff" id="SvgjsEllipse1051" cx="0" cy="0"></ellipse>
    <ellipse cx="142.5" cy="12" rx="1.5" ry="1" transform="rotate(180,142.5,12)" stroke="#4c4cff" id="SvgjsEllipse1050"></ellipse>
    <ellipse cx="146.70799" cy="8.3541498" rx="1.5" ry="1" transform="rotate(15,146.708,8.35415)" stroke="#4c4cff" id="SvgjsEllipse1049"></ellipse>
    <ellipse rx="1" ry="0.75" transform="matrix(1,0,0,-1,144,41.75)" stroke="#4c4cff" id="SvgjsEllipse1048" cx="0" cy="0"></ellipse>
    <ellipse cx="135.793" cy="10.5826" rx="1.5" ry="1" transform="rotate(-27.6879,135.793,10.5826)" stroke="#4c4cff" id="SvgjsEllipse1047"></ellipse>
  </g>
  <ellipse rx="1.0000001" ry="0.75000012" transform="matrix(0.88549184,0.46465492,0.46465492,-0.88549184,0,0)" stroke="#4c4cff" id="SvgjsEllipse1046" cx="34.048447" cy="-26.720091"></ellipse>
  <ellipse cx="34.885731" cy="1.8894897" rx="1.5" ry="1" transform="rotate(15)" stroke="#4c4cff" id="SvgjsEllipse1045"></ellipse>
  <ellipse rx="1.0000001" ry="0.75000012" transform="matrix(0.96592585,-0.25881896,-0.25881896,-0.96592585,0,0)" stroke="#4c4cff" id="SvgjsEllipse1044" cx="19.396259" cy="-46.07333"></ellipse>
  <ellipse cx="-23" cy="-11.5" rx="1.5" ry="1" transform="scale(-1)" stroke="#4c4cff" id="SvgjsEllipse1043"></ellipse>
  <ellipse cx="28.313705" cy="0.54457754" rx="1.5" ry="1" transform="rotate(15)" stroke="#4c4cff" id="SvgjsEllipse1042"></ellipse>
  <ellipse rx="1" ry="0.75" transform="scale(1,-1)" stroke="#4c4cff" id="SvgjsEllipse1041" cx="24.5" cy="-41.25"></ellipse>
  <ellipse cx="9.7423859" cy="16.498684" rx="1.5" ry="1" transform="rotate(-27.6879)" stroke="#4c4cff" id="SvgjsEllipse1040"></ellipse>
  <ellipse rx="1.0000001" ry="0.75000012" transform="matrix(0.88549184,0.46465492,0.46465492,-0.88549184,0,0)" stroke="#ffffff" stroke-width="0.5" id="SvgjsEllipse1039" cx="34.048447" cy="-26.720091"></ellipse>
  <ellipse cx="34.885731" cy="1.8894897" rx="1.5" ry="1" transform="rotate(15)" stroke="#ffffff" stroke-width="0.5" id="SvgjsEllipse1038"></ellipse>
  <ellipse rx="1.0000001" ry="0.75000012" transform="matrix(0.96592585,-0.25881896,-0.25881896,-0.96592585,0,0)" stroke="#ffffff" stroke-width="0.5" id="SvgjsEllipse1037" cx="19.396259" cy="-46.07333"></ellipse>
  <ellipse cx="-23" cy="-11.5" rx="1.5" ry="1" transform="scale(-1)" stroke="#ffffff" stroke-width="0.5" id="SvgjsEllipse1036"></ellipse>
  <ellipse cx="28.313705" cy="0.54457754" rx="1.5" ry="1" transform="rotate(15)" stroke="#ffffff" stroke-width="0.5" id="SvgjsEllipse1035"></ellipse>
  <ellipse rx="1" ry="0.75" transform="scale(1,-1)" stroke="#ffffff" stroke-width="0.5" id="SvgjsEllipse1034" cx="24.5" cy="-41.25"></ellipse>
  <ellipse cx="9.7423859" cy="16.498684" rx="1.5" ry="1" transform="rotate(-27.6879)" stroke="#ffffff" stroke-width="0.5" id="SvgjsEllipse1033"></ellipse>
  <defs id="SvgjsDefs1032">
    <filter id="SvgjsFilter1031" x="122.012" y="0.5" width="43.318501" height="49" filterUnits="userSpaceOnUse" color-interpolation-filters="sRGB">
      <feFlood flood-opacity="0" result="BackgroundImageFix" id="SvgjsFeFlood1030"></feFlood>
      <feBlend mode="normal" in="SourceGraphic" in2="BackgroundImageFix" result="shape" id="SvgjsFeBlend1029"></feBlend>
      <feGaussianBlur stdDeviation="2" result="effect1_foregroundBlur" id="SvgjsFeGaussianBlur1028"></feGaussianBlur>
    </filter>
    <filter id="SvgjsFilter1027" x="122.012" y="0.5" width="43.318501" height="49" filterUnits="userSpaceOnUse" color-interpolation-filters="sRGB">
      <feFlood flood-opacity="0" result="BackgroundImageFix" id="SvgjsFeFlood1026"></feFlood>
      <feBlend mode="normal" in="SourceGraphic" in2="BackgroundImageFix" result="shape" id="SvgjsFeBlend1025"></feBlend>
      <feGaussianBlur stdDeviation="2" result="effect1_foregroundBlur" id="SvgjsFeGaussianBlur1024"></feGaussianBlur>
    </filter>
    <filter id="SvgjsFilter1023" x="119.581" y="20" width="48.792" height="17.013" filterUnits="userSpaceOnUse" color-interpolation-filters="sRGB">
      <feFlood flood-opacity="0" result="BackgroundImageFix" id="SvgjsFeFlood1022"></feFlood>
      <feBlend mode="normal" in="SourceGraphic" in2="BackgroundImageFix" result="shape" id="SvgjsFeBlend1021"></feBlend>
      <feGaussianBlur stdDeviation="2" result="effect1_foregroundBlur" id="SvgjsFeGaussianBlur1020"></feGaussianBlur>
    </filter>
    <filter id="SvgjsFilter1019" x="119.581" y="20" width="48.792" height="17.013" filterUnits="userSpaceOnUse" color-interpolation-filters="sRGB">
      <feFlood flood-opacity="0" result="BackgroundImageFix" id="SvgjsFeFlood1018"></feFlood>
      <feBlend mode="normal" in="SourceGraphic" in2="BackgroundImageFix" result="shape" id="SvgjsFeBlend1017"></feBlend>
      <feGaussianBlur stdDeviation="2" result="effect1_foregroundBlur" id="SvgjsFeGaussianBlur1016"></feGaussianBlur>
    </filter>
    <filter id="SvgjsFilter1015" x="119.5" y="14.5" width="49.000099" height="12" filterUnits="userSpaceOnUse" color-interpolation-filters="sRGB">
      <feFlood flood-opacity="0" result="BackgroundImageFix" id="SvgjsFeFlood1014"></feFlood>
      <feBlend mode="normal" in="SourceGraphic" in2="BackgroundImageFix" result="shape" id="SvgjsFeBlend1013"></feBlend>
      <feGaussianBlur stdDeviation="2" result="effect1_foregroundBlur" id="SvgjsFeGaussianBlur1012"></feGaussianBlur>
    </filter>
    <filter id="SvgjsFilter1011" x="119.5" y="14.5" width="49.000099" height="12" filterUnits="userSpaceOnUse" color-interpolation-filters="sRGB">
      <feFlood flood-opacity="0" result="BackgroundImageFix" id="SvgjsFeFlood1010"></feFlood>
      <feBlend mode="normal" in="SourceGraphic" in2="BackgroundImageFix" result="shape" id="SvgjsFeBlend1009"></feBlend>
      <feGaussianBlur stdDeviation="2" result="effect1_foregroundBlur" id="SvgjsFeGaussianBlur1008"></feGaussianBlur>
    </filter>
    <filter id="SvgjsFilter1007" x="129.88499" y="2.8127401" width="28.7952" height="44.187302" filterUnits="userSpaceOnUse" color-interpolation-filters="sRGB">
      <feFlood flood-opacity="0" result="BackgroundImageFix" id="SvgjsFeFlood1006"></feFlood>
      <feBlend mode="normal" in="SourceGraphic" in2="BackgroundImageFix" result="shape" id="SvgjsFeBlend1005"></feBlend>
      <feGaussianBlur stdDeviation="2" result="effect1_foregroundBlur" id="SvgjsFeGaussianBlur1004"></feGaussianBlur>
    </filter>
    <filter id="SvgjsFilter1003" x="129.88499" y="2.8127401" width="28.7952" height="44.187302" filterUnits="userSpaceOnUse" color-interpolation-filters="sRGB">
      <feFlood flood-opacity="0" result="BackgroundImageFix" id="SvgjsFeFlood1002"></feFlood>
      <feBlend mode="normal" in="SourceGraphic" in2="BackgroundImageFix" result="shape" id="SvgjsFeBlend1001"></feBlend>
      <feGaussianBlur stdDeviation="2" result="effect1_foregroundBlur" id="SvgjsFeGaussianBlur1000"></feGaussianBlur>
    </filter>
  </defs>
</svg><style>@media (prefers-color-scheme: light) { :root { filter: none; } }
</style></svg>